HIERARCHY
ROOT Hips
{
    OFFSET 0.000000 0.000000 0.000000
    CHANNELS 6 Xposition Yposition Zposition Zrotation Xrotation Yrotation
    JOINT Spine
    {
        OFFSET -0.000000 6.925600 0.000000
        CHANNELS 3 Zrotation Xrotation Yrotation
        JOINT Spine1
        {
            OFFSET -0.000000 16.343796 0.000000
            CHANNELS 3 Zrotation Xrotation Yrotation
            JOINT Neck
            {
                OFFSET -0.000000 18.032967 0.000000
                CHANNELS 3 Zrotation Xrotation Yrotation
                JOINT Head
                {
                    OFFSET -0.000000 13.091072 1.689171
                    CHANNELS 3 Zrotation Xrotation Yrotation
                    End Site
                    {
                        OFFSET -0.000000 16.891708 0.000000
                    }
                }
            }
            JOINT LeftShoulder
            {
                OFFSET 3.336773 14.146137 -0.012206
                CHANNELS 3 Zrotation Xrotation Yrotation
                JOINT LeftArm
                {
                    OFFSET 11.765518 0.000000 0.000000
                    CHANNELS 3 Zrotation Xrotation Yrotation
                    JOINT LeftForeArm
                    {
                        OFFSET 25.163450 0.000000 0.000000
                        CHANNELS 3 Zrotation Xrotation Yrotation
                        JOINT LeftHand
                        {
                            OFFSET 21.783554 0.000000 0.000000
                            CHANNELS 3 Zrotation Xrotation Yrotation
                            End Site
                            {
                                OFFSET 12.668781 0.000000 0.000000
                            }
                        }
                    }
                }
            }
            JOINT RightShoulder
            {
                OFFSET -3.409204 14.146137 -0.012206
                CHANNELS 3 Zrotation Xrotation Yrotation
                JOINT RightArm
                {
                    OFFSET -11.765518 0.000000 0.000000
                    CHANNELS 3 Zrotation Xrotation Yrotation
                    JOINT RightForeArm
                    {
                        OFFSET -25.163450 0.000000 0.000000
                        CHANNELS 3 Zrotation Xrotation Yrotation
                        JOINT RightHand
                        {
                            OFFSET -21.783554 0.000000 0.000000
                            CHANNELS 3 Zrotation Xrotation Yrotation
                            End Site
                            {
                                OFFSET -12.668781 0.000000 0.000000
                            }
                        }
                    }
                }
            }
        }
    }
    JOINT LeftUpLeg
    {
        OFFSET 8.445854 0.000000 0.000000
        CHANNELS 3 Zrotation Xrotation Yrotation
        JOINT LeftLeg
        {
            OFFSET -0.000000 -40.674755 0.000000
            CHANNELS 3 Zrotation Xrotation Yrotation
            JOINT LeftFoot
            {
                OFFSET -0.000000 -37.111794 0.000000
                CHANNELS 3 Zrotation Xrotation Yrotation
                JOINT LeftToeBase
                {
                    OFFSET -0.000000 -5.489805 12.668781
                    CHANNELS 3 Zrotation Xrotation Yrotation
                    End Site
                    {
                        OFFSET -0.000000 0.000000 3.378341
                    }
                }
            }
        }
    }
    JOINT RightUpLeg
    {
        OFFSET -8.445854 0.000000 0.000000
        CHANNELS 3 Zrotation Xrotation Yrotation
        JOINT RightLeg
        {
            OFFSET -0.000000 -40.674755 0.000000
            CHANNELS 3 Zrotation Xrotation Yrotation
            JOINT RightFoot
            {
                OFFSET -0.000000 -37.111794 0.000000
                CHANNELS 3 Zrotation Xrotation Yrotation
                JOINT RightToeBase
                {
                    OFFSET -0.000000 -5.489805 12.668781
                    CHANNELS 3 Zrotation Xrotation Yrotation
                    End Site
                    {
                        OFFSET -0.000000 0.000000 3.378341
                    }
                }
            }
        }
    }
}
MOTION
Frames:    10
Frame Time:    0.008333
-80.982483    83.416405    13.781619    9.118164    0.720671    81.990471    -4.962641    1.173453    -5.021137    3.878115    18.917425    -2.343246    -6.246139    18.065973    3.441956    6.509226    6.903938    0.509375    -0.833826    8.182587    8.117245    -50.922775    20.094187    -36.794945    12.321447    -7.001979    -24.161860    3.517967    -4.550901    -6.017121    -3.650764    13.261116    -3.871711    64.222717    34.293243    23.146257    -12.865863    -16.359819    15.255354    2.434582    -14.677583    0.740672    -5.089258    11.308755    -13.047383    0.733903    7.329150    -0.915252    2.852401    -3.987950    18.446470    -3.343587    -4.506662    -0.522348    -2.002611    -15.193244    5.266261    -0.121310    38.358215    -1.927448    7.413160    -9.572088    1.648572    3.784085    -7.294961    2.461387    
-80.322502    83.378365    13.930891    8.922789    0.764283    82.176247    -5.110818    1.039766    -5.306642    3.938524    18.898645    -2.446476    -6.119522    17.992319    3.392579    6.601468    6.836500    0.485665    -0.828954    8.148907    8.169127    -50.616325    19.962929    -37.044880    12.745813    -7.114046    -24.874672    3.658895    -4.505090    -6.301743    -3.652415    13.224001    -3.909821    64.675751    33.275696    22.768414    -12.098621    -15.782155    15.057841    2.175367    -14.214770    0.936077    -5.054453    11.553058    -13.096261    0.722480    7.414314    -1.013696    3.147986    -4.399894    18.553232    -3.366233    -4.540956    -0.537560    -1.877847    -15.164249    5.405460    -0.754144    35.256367    -1.923516    8.701641    -8.823527    1.885465    3.975012    -7.592241    2.459707    
-79.660034    83.336868    14.100845    8.759535    0.815208    82.334824    -5.606238    1.019559    -5.508409    4.644405    18.788174    -2.628751    -6.226117    18.023359    3.333759    6.648717    6.721426    0.389702    -0.399203    7.727236    7.824067    -51.470463    20.139206    -36.475327    13.433039    -7.256130    -25.512491    3.899267    -4.439832    -6.616012    -3.740090    14.522637    -5.253349    63.451221    33.067181    25.120966    -11.332629    -15.339438    14.282637    1.919986    -13.942710    1.146231    -4.898887    11.803654    -13.147907    0.488970    7.491901    -1.100774    3.237218    -4.247055    18.501892    -3.900685    -5.158535    -0.397245    -1.727324    -15.027396    5.491660    -1.469910    31.801018    -1.628379    8.608307    -9.028386    1.561249    3.418695    -6.629289    2.218057    
-78.996368    83.285248    14.257583    8.575181    0.882623    82.484535    -5.744675    0.884513    -5.708513    4.684114    18.774534    -2.699677    -6.179515    17.959080    3.275094    6.838218    6.641659    0.315389    -0.391236    7.629054    7.806341    -51.251377    19.992996    -36.635105    13.787815    -7.344037    -26.157358    4.011673    -4.378178    -6.807352    -3.718532    14.539889    -5.362104    63.831558    32.301670    24.860081    -10.803927    -14.851701    13.967651    1.798027    -13.544977    1.313531    -5.014003    12.082527    -13.162107    0.787375    7.634716    -1.162138    3.160474    -5.040457    18.541870    -3.550009    -4.787848    -0.580439    -1.648511    -14.872952    5.566763    -2.185316    28.626705    0.331635    9.042784    -9.319887    0.270049    3.056418    -5.839160    1.675787    
-78.344070    83.221016    14.429545    8.378195    0.925085    82.736511    -5.849731    0.776505    -5.957347    4.715271    18.740698    -2.784769    -6.070916    17.838747    3.170627    6.972046    6.651014    0.219937    -0.358877    7.552965    7.800423    -51.027111    19.870626    -36.864529    14.120354    -7.452210    -26.720472    4.245946    -4.354020    -6.939280    -3.696186    14.517694    -5.424858    64.265259    31.585173    24.529308    -10.356154    -14.405677    13.656739    1.517599    -13.179569    1.445597    -4.939367    12.315958    -13.301895    0.751871    7.783190    -1.203270    3.360643    -5.943314    18.679024    -3.026459    -4.120661    -0.555520    -1.450984    -14.737178    5.005413    -3.304938    25.429653    1.410976    10.101009    -9.492302    0.098310    2.296667    -5.286908    3.257759    
-77.668587    83.157364    14.580814    8.179947    1.022070    82.856102    -5.930790    0.594217    -6.116935    4.659812    18.745228    -2.826028    -5.989790    17.725540    3.076945    7.094061    6.671326    0.128638    -0.336785    7.512648    7.822642    -50.582165    20.058693    -37.081779    14.490286    -7.775227    -27.360216    4.481366    -4.516478    -6.894018    -3.672822    14.597615    -5.553620    64.526970    30.690775    24.464224    -9.652875    -13.829743    13.247449    1.305162    -12.718405    1.613424    -4.977443    12.549326    -13.289828    0.787176    7.917155    -1.271901    3.381610    -6.292718    18.716560    -3.068385    -4.180103    -0.572560    -1.380464    -14.573421    5.233225    -4.234921    22.346029    1.150175    10.522254    -8.466253    1.746072    2.642027    -5.437510    2.306737    
-76.978371    83.086479    14.742003    8.008175    1.128140    82.970222    -6.011945    0.415191    -6.251349    4.590046    18.750490    -2.856504    -5.910488    17.597105    2.965060    7.203654    6.732555    0.018423    -0.306573    7.464364    7.820754    -50.461952    19.852428    -37.322502    14.705856    -7.799315    -27.768980    4.618299    -4.444469    -7.006943    -3.667509    14.605337    -5.604287    64.823715    30.576714    24.157852    -9.629339    -13.721891    12.977669    1.194279    -12.637167    1.574010    -5.127358    12.773733    -13.285830    1.044462    8.266136    -0.911075    2.013408    -6.917535    18.620953    -3.018706    -4.263762    -0.946873    -1.157883    -14.249569    5.519703    -4.808608    19.239033    2.138100    8.758027    -8.917649    -0.088062    2.782141    -5.693762    2.391140    
-76.283615    83.006897    14.887650    7.819935    1.258325    83.076126    -6.019941    0.188606    -6.372328    4.427275    18.763969    -2.866554    -6.471904    17.507200    2.953348    8.176377    6.591400    -0.322772    -0.292620    7.432659    7.776251    -51.357502    19.349205    -37.087780    15.786880    -7.782036    -28.515491    3.973262    -4.003426    -6.927494    -3.720150    14.424857    -5.399319    65.433060    20.788536    24.624937    -0.630969    -8.151665    11.126406    -2.672412    -8.178952    3.813117    -5.138975    13.063970    -13.316558    0.859196    8.176544    -1.152094    4.492693    -5.677135    18.618773    -4.104767    -5.468873    -0.546537    -1.128328    -14.020568    5.718956    -5.505250    16.276884    2.427696    8.656419    -8.365130    -0.122726    2.949855    -5.818297    2.043313    
-75.581734    82.936768    15.064357    7.653043    1.351636    83.163383    -6.069736    -0.030297    -6.456191    4.349325    18.796190    -2.879099    -6.459207    17.428688    2.860360    8.311122    6.597660    -0.436254    -0.266933    7.373544    7.759511    -51.129143    19.417706    -37.277950    16.041279    -7.963125    -28.894072    4.270040    -4.084309    -7.013390    -3.732552    14.490363    -5.458603    66.711380    21.412226    24.502918    -3.494665    -8.467760    9.807854    -0.995564    -8.206124    4.075044    -5.156677    13.294623    -13.289785    0.933761    8.450884    -1.151242    3.277772    -7.305961    18.514277    -3.301898    -4.491710    -0.619537    -1.066475    -13.748539    5.950376    -6.084717    13.429759    2.715938    8.004186    -7.968482    -0.309967    3.272229    -6.180296    1.666631    
-74.871788    82.857452    15.224934    7.490084    1.484055    83.201340    -6.085707    -0.269037    -6.502809    4.194441    18.822578    -2.865767    -6.441738    17.378025    2.764882    8.389856    6.567479    -0.539590    -0.231964    7.370900    7.757496    -50.960957    19.400927    -37.498356    16.198606    -8.094185    -29.216488    4.397756    -4.133553    -7.003537    -3.758909    14.526105    -5.463014    66.852310    21.507610    24.327591    -3.579417    -8.478652    9.472554    -0.962891    -8.218442    3.995014    -5.322145    13.488402    -13.167874    1.022866    8.785310    -1.004780    4.294876    -6.347694    18.444498    -4.315034    -5.773223    -0.663660    -1.124577    -13.569327    6.274166    -6.449347    10.928357    2.803771    8.449813    -8.012148    -0.549436    2.633742    -5.235652    1.852207    
